/* XPM */
static char * C:\Users\Admin\Documents\GitHub\ittrium\share\pixmaps\bitcoin16_xpm[] = {
"16 16 51 1",
" 	c None",
".	c #4ACDFF",
"+	c #46CAFF",
"@	c #52D2FE",
"#	c #4FD0FF",
"$	c #4BCDFF",
"%	c #3FC5FF",
"&	c #3AC1FF",
"*	c #36BEFF",
"=	c #5BD9FE",
"-	c #57D6FE",
";	c #52D2FF",
">	c #4FD0FE",
",	c #47CAFF",
"'	c #32BBFF",
")	c #2EB8FF",
"!	c #29B5FF",
"~	c #26B3FF",
"{	c #46C6F9",
"]	c #34B7F4",
"^	c #55D5FF",
"/	c #2BB6FF",
"(	c #25B2FF",
"_	c #22B0FF",
":	c #23A7EF",
"<	c #1EADFE",
"[	c #1096E8",
"}	c #1AAAFE",
"|	c #0D96EC",
"1	c #15A7FF",
"2	c #12A2FA",
"3	c #11A1F8",
"4	c #17A8FF",
"5	c #139DF0",
"6	c #1CABFE",
"7	c #25ABF2",
"8	c #21AFFF",
"9	c #4BCBFA",
"0	c #5DDAFE",
"a	c #60DDFE",
"b	c #33BCFF",
"c	c #59D7FE",
"d	c #5CD9FF",
"e	c #5EDBFE",
"f	c #3BC2FF",
"g	c #41C6FF",
"h	c #58D7FF",
"i	c #5BD9FF",
"j	c #4ACCFF",
"k	c #57D6FF",
"l	c #53D3FF",
"       .+       ",
"    @#$  %&*    ",
" =-;>.,  &*')!~ ",
" {]^        /(_ ",
" :            < ",
" [            } ",
" |            1 ",
" 2            3 ",
" 4            5 ",
" 6            7 ",
" 8            9 ",
" (!          0a ",
"   b       cde  ",
"    fg    hi    ",
"      j#^k      ",
"       lk       "};
