/* XPM */
static char * C:\Users\Admin\Documents\GitHub\ittrium\share\pixmaps\bitcoin64_xpm[] = {
"64 64 248 2",
"  	c None",
". 	c #4CCEFF",
"+ 	c #4BCDFF",
"@ 	c #4ACCFF",
"# 	c #49CBFF",
"$ 	c #48CBFF",
"% 	c #47CAFF",
"& 	c #4ECFFF",
"* 	c #4DCEFF",
"= 	c #46CAFF",
"- 	c #45C9FF",
"; 	c #44C8FF",
"> 	c #43C7FF",
", 	c #41C6FF",
"' 	c #4FD0FF",
") 	c #46C9FF",
"! 	c #43C8FF",
"~ 	c #42C7FF",
"{ 	c #40C6FF",
"] 	c #40C5FF",
"^ 	c #4BCEFF",
"/ 	c #3EC4FF",
"( 	c #55D4FF",
"_ 	c #54D4FF",
": 	c #53D3FF",
"< 	c #52D2FF",
"[ 	c #51D1FF",
"} 	c #50D0FF",
"| 	c #3FC5FF",
"1 	c #3DC3FF",
"2 	c #3CC3FF",
"3 	c #39C1FF",
"4 	c #38C0FF",
"5 	c #37BFFF",
"6 	c #36BEFF",
"7 	c #35BEFF",
"8 	c #54D3FF",
"9 	c #50D1FF",
"0 	c #34BDFF",
"a 	c #33BCFF",
"b 	c #5AD8FF",
"c 	c #59D7FF",
"d 	c #58D6FF",
"e 	c #4DCFFF",
"f 	c #3DC4FF",
"g 	c #3BC2FF",
"h 	c #35BDFF",
"i 	c #32BBFF",
"j 	c #31BBFF",
"k 	c #2EB8FF",
"l 	c #2DB8FF",
"m 	c #2CB7FF",
"n 	c #5BD8FF",
"o 	c #57D6FF",
"p 	c #56D5FF",
"q 	c #4ACDFF",
"r 	c #47CBFF",
"s 	c #3AC1FF",
"t 	c #30BAFF",
"u 	c #2BB6FF",
"v 	c #2AB6FF",
"w 	c #29B5FF",
"x 	c #59D7FE",
"y 	c #58D6FE",
"z 	c #56D6FF",
"A 	c #52D3FF",
"B 	c #49CCFF",
"C 	c #39C0FF",
"D 	c #2FB9FF",
"E 	c #28B4FF",
"F 	c #27B3FF",
"G 	c #58D7FF",
"H 	c #57D6FE",
"I 	c #31BAFF",
"J 	c #2DB7FF",
"K 	c #2AB5FF",
"L 	c #28B5FF",
"M 	c #25B3FF",
"N 	c #25B2FF",
"O 	c #5AD8FE",
"P 	c #56D5FE",
"Q 	c #52D1FD",
"R 	c #55D5FF",
"S 	c #53D3FE",
"T 	c #26B3FF",
"U 	c #24B1FF",
"V 	c #57D5FE",
"W 	c #5CDAFF",
"X 	c #34B6F3",
"Y 	c #52D2FE",
"Z 	c #22B0FF",
"` 	c #0B91E7",
" .	c #51D1FE",
"..	c #4ED0FF",
"+.	c #21B0FF",
"@.	c #55D4FE",
"#.	c #5BDAFF",
"$.	c #33B5F3",
"%.	c #0084E2",
"&.	c #23B1FF",
"*.	c #20AFFF",
"=.	c #1298E9",
"-.	c #0087E4",
";.	c #1FAEFF",
">.	c #58D8FF",
",.	c #45C6F9",
"'.	c #0088E4",
").	c #048CE6",
"!.	c #1EADFF",
"~.	c #5ADAFF",
"{.	c #2DB1F2",
"].	c #0086E3",
"^.	c #068EE6",
"/.	c #1DADFF",
"(.	c #199EEC",
"_.	c #1CACFF",
":.	c #4ACBFC",
"<.	c #0B93E8",
"[.	c #038CE5",
"}.	c #078EE6",
"|.	c #1BABFF",
"1.	c #3BBEF7",
"2.	c #058DE5",
"3.	c #088FE6",
"4.	c #1DACFF",
"5.	c #1AAAFF",
"6.	c #2CB0F2",
"7.	c #048CE5",
"8.	c #0990E5",
"9.	c #19AAFF",
"0.	c #1FA5EE",
"a.	c #0990E6",
"b.	c #0A91E6",
"c.	c #18A9FF",
"d.	c #169DEC",
"e.	c #078FE7",
"f.	c #0A92E7",
"g.	c #0B92E7",
"h.	c #19A9FF",
"i.	c #17A8FF",
"j.	c #1098EB",
"k.	c #0991E8",
"l.	c #0C94E9",
"m.	c #16A7FF",
"n.	c #0D96EC",
"o.	c #0B94EA",
"p.	c #0C95EB",
"q.	c #0E96EC",
"r.	c #18A9FE",
"s.	c #17A8FE",
"t.	c #15A7FE",
"u.	c #15A6FE",
"v.	c #0C96EE",
"w.	c #0C97EE",
"x.	c #0E98EE",
"y.	c #0F99EE",
"z.	c #15A6FF",
"A.	c #14A6FE",
"B.	c #0C99F1",
"C.	c #0E9AF1",
"D.	c #0F9BF1",
"E.	c #109BF1",
"F.	c #12A5FE",
"G.	c #0E9DF5",
"H.	c #0F9DF5",
"I.	c #109EF5",
"J.	c #119FF5",
"K.	c #15A6FD",
"L.	c #13A5FD",
"M.	c #12A4FD",
"N.	c #11A4FD",
"O.	c #10A0F9",
"P.	c #11A0F9",
"Q.	c #12A2F9",
"R.	c #13A2F9",
"S.	c #13A3FA",
"T.	c #12A2FA",
"U.	c #11A1FA",
"V.	c #10A1FA",
"W.	c #11A3FD",
"X.	c #12A4FC",
"Y.	c #14A5FC",
"Z.	c #15A5FD",
"`.	c #12A0F7",
" +	c #119FF6",
".+	c #109EF6",
"++	c #109FF7",
"@+	c #16A7FE",
"#+	c #109DF3",
"$+	c #0F9CF3",
"%+	c #0D9BF3",
"&+	c #129FF4",
"*+	c #0F9AF0",
"=+	c #0B98F1",
"-+	c #17A2F3",
";+	c #0E99EF",
">+	c #0A96EE",
",+	c #20A8F3",
"'+	c #16A8FF",
")+	c #0D97ED",
"!+	c #0893EC",
"~+	c #2CB2F5",
"{+	c #0C96EC",
"]+	c #0B95ED",
"^+	c #0993EC",
"/+	c #3ABEF8",
"(+	c #0B95EC",
"_+	c #4ACBFB",
":+	c #0B94EC",
"<+	c #0590EB",
"[+	c #18A0EF",
"}+	c #0A94EB",
"|+	c #028CE9",
"1+	c #2CB1F3",
"2+	c #5EDCFF",
"3+	c #20AEFF",
"4+	c #0993EB",
"5+	c #038EE9",
"6+	c #5DDBFF",
"7+	c #21AFFF",
"8+	c #038FEA",
"9+	c #139BED",
"0+	c #1FADFF",
"a+	c #008BE9",
"b+	c #34B7F5",
"c+	c #60DDFF",
"d+	c #0D97EC",
"e+	c #56D4FD",
"f+	c #5CD9FE",
"g+	c #24B2FF",
"h+	c #3CBEF6",
"i+	c #5BD9FE",
"j+	c #5DDAFF",
"k+	c #5EDBFF",
"l+	c #5FDBFE",
"m+	c #5CDAFE",
"n+	c #5FDBFF",
"o+	c #60DCFF",
"p+	c #5BD9FF",
"q+	c #5DDAFE",
"r+	c #5EDAFE",
"s+	c #61DDFF",
"t+	c #5CD9FF",
"u+	c #32BCFF",
"v+	c #33BDFF",
"w+	c #3BC1FF",
"x+	c #3CC2FF",
"y+	c #57D5FF",
"                                                                                                                                ",
"                                                          . + @ # $ %                                                           ",
"                                                    & * . + @ # $ % = - ; > ,                                                   ",
"                                                ' & * . + @ $ $ % ) - ! > ~ { ]                                                 ",
"                                                & * ^ + @ $ $ % ) - ! ~ , { ] /                                                 ",
"                                ( _ : < [ }     * ^ + @ #             ~ { | / 1 2     3 4 5 6 7                                 ",
"                              ( 8 : < [ 9 '     . + @ #                   / 1 2     3 4 5 6 7 0 a                               ",
"                  b c d     ( _ : < [ 9 ' e     + @ $ $                   f 2 g     4 5 6 h 0 a i j     k l m                   ",
"              n b c d o p   : : < [ } ' & . ^ q @ $ r %                   2 g s 3 4 5 6 7 0 a i j t   k l m u v w               ",
"            n b x y z p ( 8 A < 9 9   & . ^ + B $ $ = -                   g s C 4 5 6 h 0   i j t D k l m u v w E F             ",
"          n b G y H p ( : : < 9 } '   . ^ q B $ $ = -                     s C 4 5 6 h 0 a   I t D k J m u K L E F M N           ",
"          O x G P Q R S : < 9 } ' e   + q B $ r = -                         4 5 6 h 0 a i   t D k l m u K w E F T N U           ",
"          x V W X   G Y < 9 } ' e         $ $                                   7 0 a i       k J m u K L E   M N U Z           ",
"          H o Q `      .9 } ..e *                                                             l m v w L E     N U Z +.          ",
"          @.#.$.%.      9 '                                                                         w E       &.Z +.*.          ",
"          @.z =.-.                                                                                            Z +.*.;.          ",
"          >.,.'.).                                                                                            +.*.;.!.          ",
"          ~.{.].^.                                                                                            *.;.!./.          ",
"          p (.'.^.                                                                                            ;.!./._.          ",
"          :.<.[.}.                                                                                            !./._.|.          ",
"          1.2.^.3.                                                                                            4._.|.5.          ",
"          6.7.3.8.                                                                                            _.|.5.9.          ",
"          0.2.a.b.                                                                                            |.5.9.c.          ",
"          d.e.f.g.                                                                                            5.h.c.i.          ",
"          j.k.<.l.                                                                                            9.c.i.m.          ",
"          n.o.p.q.                                                                                            r.s.t.u.          ",
"          v.w.x.y.                                                                                            s.m.z.A.          ",
"          B.C.D.E.                                                                                            t.t.A.F.          ",
"          G.H.I.J.                                                                                            K.L.M.N.          ",
"          O.P.Q.R.                                                                                            S.T.U.V.          ",
"          W.X.Y.Z.                                                                                            `. +.+++          ",
"          F.A.u.@+                                                                                            #+$+%+&+          ",
"          A.z.m.s.                                                                                            D.*+=+-+          ",
"          t.@+s.r.                                                                                            x.;+>+,+          ",
"          '+i.c.9.                                                                                            )+)+!+~+          ",
"          i.c.9.|.                                                                                            {+]+^+/+          ",
"          c.9.|._.                                                                                            (+^+)+_+          ",
"          5.|._./.                                                                                            :+<+[+H           ",
"          |._./.!.                                                                                            }+|+1+2+          ",
"          _./.!.3+                                                                                            4+5+,.6+          ",
"          /.!.3+7+                                                                                            8+9+x b           ",
"          0+;.7+Z                                                                                             a+b+c+x           ",
"          3+7+Z &.                                                                                            d+e+W f+          ",
"          7+Z &.g+                                                                                            h+c+i+j+          ",
"          Z &.g+M                                                                                           x f+W k+l+          ",
"          U g+T F E w                                                                                     b i+m+j+n+o+          ",
"            T F E w v m                                                                               c b p+q+r+n+o+            ",
"              E w v m J k D                                                                         c b p+j+k+n+o+s+            ",
"                v m J k D t j                                                                   G c b t+j+k+n+o+                ",
"                    k D t j u+v+h                                                             G c n t+j+k+n+o+                  ",
"                      t i a v+h 6 5                                                       o G c n t+j+k+n+                      ",
"                          0 h 6 5 4 3 w+                                                o G b n t+j+k+                          ",
"                            6 5 4 s w+x+1                                           p o G b n t+j+k+                            ",
"                                s g x+1 / | ,                                     p o c b n t+j+                                ",
"                                  x+1 / | , ~ > ;                             ( p o c b n t+j+                                  ",
"                                      | , ~ > ; - %                         ( p d c b n t+                                      ",
"                                        ~ > ; - = $ # @                 _ ( p o c b p+t+                                        ",
"                                            - % $ # @ + .             _ ( p d c b n                                             ",
"                                              $ B @ + . e ' 9     : _ ( p d c b n                                               ",
"                                                  + . & ' 9 [ < : _ p y+d c b                                                   ",
"                                                    e ' 9 [ < : _ p z d c                                                       ",
"                                                        [ < : _ p o G c                                                         ",
"                                                            _ p o d                                                             ",
"                                                                                                                                "};
