/* XPM */
static char * C:\Users\Admin\Documents\GitHub\ittrium\share\pixmaps\bitcoin32_xpm[] = {
"32 32 124 2",
"  	c None",
". 	c #4BCDFF",
"+ 	c #49CBFF",
"@ 	c #4ED0FF",
"# 	c #4DCEFF",
"$ 	c #47CAFF",
"% 	c #45C9FF",
"& 	c #42C7FF",
"* 	c #40C6FF",
"= 	c #52D3FF",
"- 	c #4DCFFF",
"; 	c #43C7FF",
"> 	c #41C6FF",
", 	c #3EC4FF",
"' 	c #38C0FF",
") 	c #55D4FF",
"! 	c #53D3FF",
"~ 	c #51D1FF",
"{ 	c #4FD0FF",
"] 	c #4ACDFF",
"^ 	c #3CC3FF",
"/ 	c #36BFFF",
"( 	c #34BDFF",
"_ 	c #32BCFF",
": 	c #5BD8FE",
"< 	c #59D7FE",
"[ 	c #57D6FF",
"} 	c #55D4FE",
"| 	c #48CBFF",
"1 	c #3CC2FF",
"2 	c #3AC1FF",
"3 	c #36BEFF",
"4 	c #32BBFF",
"5 	c #30BAFF",
"6 	c #2EB8FF",
"7 	c #2CB7FF",
"8 	c #2AB6FF",
"9 	c #28B4FF",
"0 	c #59D8FE",
"a 	c #56D5FE",
"b 	c #54D4FF",
"c 	c #50D1FF",
"d 	c #46CAFF",
"e 	c #2FBAFF",
"f 	c #2AB5FF",
"g 	c #26B3FF",
"h 	c #52D1FD",
"i 	c #1DA2ED",
"j 	c #56D6FF",
"k 	c #50D1FE",
"l 	c #4ECFFF",
"m 	c #29B5FF",
"n 	c #25B2FF",
"o 	c #23B1FF",
"p 	c #39BBF5",
"q 	c #007DE0",
"r 	c #21B0FF",
"s 	c #20A4EE",
"t 	c #0082E2",
"u 	c #21AFFF",
"v 	c #1FAEFF",
"w 	c #1097E9",
"x 	c #0088E4",
"y 	c #1DADFF",
"z 	c #0A91E7",
"A 	c #068EE5",
"B 	c #1DACFF",
"C 	c #1BABFF",
"D 	c #1BABFE",
"E 	c #19A9FE",
"F 	c #0B94EA",
"G 	c #0D95EA",
"H 	c #18A9FE",
"I 	c #17A8FE",
"J 	c #0E99EF",
"K 	c #109AF0",
"L 	c #16A8FF",
"M 	c #15A7FF",
"N 	c #109FF7",
"O 	c #13A1F7",
"P 	c #14A5FC",
"Q 	c #12A3FC",
"R 	c #14A5FE",
"S 	c #16A7FE",
"T 	c #119FF5",
"U 	c #109EF5",
"V 	c #18A9FF",
"W 	c #0F99EF",
"X 	c #0E99F0",
"Y 	c #1AAAFE",
"Z 	c #0B95EC",
"` 	c #0E98ED",
" .	c #0590EB",
"..	c #139CEE",
"+.	c #0089E8",
"@.	c #21A8F1",
"#.	c #20AEFF",
"$.	c #22B0FF",
"%.	c #0086E7",
"&.	c #3CBEF7",
"*.	c #24B1FF",
"=.	c #25AAF1",
"-.	c #56D5FD",
";.	c #24B2FF",
">.	c #27B3FF",
",.	c #5CD9FE",
"'.	c #5EDBFE",
").	c #2BB7FF",
"!.	c #5AD7FE",
"~.	c #5BD9FF",
"{.	c #60DCFE",
"].	c #59D7FF",
"^.	c #5EDBFF",
"/.	c #33BCFF",
"(.	c #35BDFF",
"_.	c #37BFFF",
":.	c #5CD9FF",
"<.	c #5AD8FF",
"[.	c #55D5FF",
"}.	c #4ACCFF",
"|.	c #58D6FF",
"1.	c #4CCEFF",
"2.	c #54D3FF",
"3.	c #56D5FF",
"                              . +                               ",
"                        @ # . + $ % & *                         ",
"                  =     - . +     ; > ,     '                   ",
"              ) ! ~ {   ] +         , ^   ' / ( _               ",
"      : < [ } = ~ @ # . | $         1 2 ' 3 ( 4 5 6 7 8 9       ",
"      0 a b ! c {   ] | d             ' 3 (   e 6 7 f 9 g       ",
"      h i j k l #                             6 7 m 9 n o       ",
"      p q                                               r       ",
"      s t                                             u v       ",
"      w x                                             v y       ",
"      z A                                             B C       ",
"      z z                                             D E       ",
"      F G                                             H I       ",
"      J K                                             L M       ",
"      N O                                             P Q       ",
"      R S                                             T U       ",
"      L V                                             W X       ",
"      H Y                                             Z `       ",
"      C B                                              ...      ",
"      y v                                             +.@.      ",
"      #.$.                                            %.&.      ",
"      $.*.                                            =.-.      ",
"      ;.>.                                            ,.'.      ",
"      >.m ).                                      !.~.'.{.      ",
"        ).6 5 _                                 ].~.^.{.        ",
"            /.(._.2                         [ ].:.^.            ",
"              _.2 1 ,                     [ <.:.^.              ",
"                  , > ; %             [.[ <.:.                  ",
"                      % | }.        ) |.<.                      ",
"                        }.1.{ ~ 2.) |.<.                        ",
"                            ~ ! 3.|.                            ",
"                              [.|.                              "};
