<svg xmlns="http://www.w3.org/2000/svg" width="1024" height="1024" viewBox="-34 -34 580 580"><filter id="b"><feColorMatrix result="matrixOut" in="SourceAlpha" type="saturate" values=".1"/><feGaussianBlur in="matrixOut" result="blur-out" stdDeviation="6"/><feColorMatrix in="blur-out" result="color-out" values="0 0 0 0 0 0 0 0 0 0 0 0 0 0 0 0 0 0 0.35 0"/><feBlend in="SourceGraphic" in2="color-out"/></filter><circle cx="255" cy="255" r="200" fill="#fff"/><radialGradient id="a" cx="277.49" cy="196.441" r="34.397" gradientUnits="userSpaceOnUse"><stop offset="0" stop-color="#F9AA4B"/><stop offset="1" stop-color="#F7931A"/></radialGradient><path fill="url(#a)" filter="url(#b)" d="M254.647 174.6l-13.983 56.08c15.855 3.951 64.735 20.071 72.656-11.656 8.248-33.096-42.817-40.472-58.673-44.424z"/><radialGradient id="c" cx="261.915" cy="284.567" r="39.838" gradientUnits="userSpaceOnUse"><stop offset="0" stop-color="#F9AA4B"/><stop offset="1" stop-color="#F7931A"/></radialGradient><path fill="url(#c)" filter="url(#b)" d="M233.608 258.984l-15.425 61.832c19.04 4.729 77.769 23.584 86.448-11.296 9.072-36.376-51.984-45.784-71.023-50.536z"/><radialGradient id="d" cx="256.028" cy="256.003" r="255.988" gradientUnits="userSpaceOnUse"><stop offset="0" stop-color="#F9AA4B"/><stop offset="1" stop-color="#F7931A"/></radialGradient><path fill="url(#d)" filter="url(#b)" d="M317.871 7.656c-137.12-34.192-276.024 49.28-310.2 186.44-34.208 137.136 49.256 276.048 186.36 310.24 137.16 34.199 276.063-49.265 310.256-186.408 34.192-137.152-49.264-276.08-186.416-310.272zm50.936 211.872c-3.688 24.936-17.512 37.008-35.864 41.24 25.2 13.12 38.024 33.239 25.809 68.12-15.16 43.319-51.176 46.976-99.072 37.912l-11.624 46.584-28.088-7 11.472-45.96c-7.279-1.809-14.72-3.729-22.384-5.809l-11.512 46.177-28.056-7 11.624-46.673c-6.561-1.68-13.225-3.464-20.024-5.168l-36.552-9.111 13.943-32.152s20.696 5.504 20.416 5.096c7.952 1.969 11.48-3.216 12.872-6.672l18.368-73.64.048-.2 13.104-52.568c.344-5.968-1.712-13.496-13.088-16.336.439-.296-20.4-5.072-20.4-5.072l7.472-30 38.736 9.673-.032.144c5.824 1.448 11.824 2.824 17.937 4.216l11.511-46.129 28.072 7-11.28 45.224c7.536 1.721 15.12 3.456 22.504 5.297l11.2-44.929 28.088 7-11.504 46.145c35.464 12.215 61.401 30.527 56.304 64.591z"/></svg>