<svg xmlns="http://www.w3.org/2000/svg" xmlns:xlink="http://www.w3.org/1999/xlink" width="16" height="16"><defs><linearGradient id="e"><stop offset="0" stop-color="#c1c1c1"/><stop offset="1" stop-color="#8c8c8c"/></linearGradient><linearGradient id="c"><stop offset="0"/><stop offset="1" stop-color="#b3b3b3"/></linearGradient><linearGradient id="d"><stop offset="0" stop-color="#fff"/><stop offset=".364" stop-color="#ffa184" stop-opacity=".498"/><stop offset="1" stop-color="#ff440a" stop-opacity="0"/></linearGradient><linearGradient id="a"><stop offset="0" stop-color="#909090"/><stop offset="1" stop-color="#3c3c3c"/></linearGradient><linearGradient id="b"><stop offset="0" stop-color="#ffda82"/><stop offset="1" stop-color="#ffbb19"/></linearGradient><linearGradient xlink:href="#a" id="f" x1="2.225" y1="2.83" x2="14.039" y2="13.172" gradientUnits="userSpaceOnUse"/><filter id="g"><feGaussianBlur stdDeviation=".324"/></filter><linearGradient xlink:href="#b" id="h" gradientUnits="userSpaceOnUse" x1="2.225" y1="2.83" x2="14.039" y2="13.172"/><linearGradient xlink:href="#c" id="j" x1="10.74" y1="16.149" x2="6.306" y2="-1.28" gradientUnits="userSpaceOnUse"/><radialGradient xlink:href="#d" id="k" gradientUnits="userSpaceOnUse" gradientTransform="matrix(1.571 .011 -.014 1.98 -4.566 -.684)" cx="8.198" cy="-.08" fx="8.198" fy="-.08" r="7.778"/><linearGradient xlink:href="#e" id="i" gradientUnits="userSpaceOnUse" x1="2.225" y1="2.83" x2="14.039" y2="13.172"/></defs><path d="M15.822 8.133a7.778 7.778 0 1 1-15.556 0 7.778 7.778 0 1 1 15.556 0z" transform="translate(0 -.088)" fill="url(#f)" filter="url(#g)"/><path transform="matrix(.916 0 0 .916 .647 .567)" d="M15.822 8.133a7.778 7.778 0 1 1-15.556 0 7.778 7.778 0 1 1 15.556 0z" fill="url(#h)"/><path d="M8.214 15.91a7.778 7.778 0 1 1-.143-15.554l-.027 7.778z" transform="matrix(.916 0 0 .916 .647 .567)" fill="url(#i)"/><g><path d="M5.798 3.162c.223.387.102.876-.272 1.091-.374.216-.858.077-1.081-.31-.223-.387-.102-.876.272-1.091.374-.216.858-.077 1.081.31zm-2.07 1.819c.387.223.526.707.31 1.081-.216.374-.704.495-1.091.272-.387-.223-.526-.707-.31-1.081.216-.374.704-.495 1.091-.272zm-.884 2.61c.447 0 .809.35.809.781 0 .431-.362.781-.809.781-.447 0-.809-.35-.809-.781 0-.431.362-.781.809-.781zm.54 2.702c.387-.223.876-.102 1.091.272.216.374.077.858-.31 1.081-.387.223-.876.102-1.091-.272-.216-.374-.077-.858.31-1.081zm1.819 2.07c.223-.387.707-.526 1.081-.31.374.216.495.704.272 1.091-.223.387-.707.526-1.081.31-.374-.216-.495-.704-.272-1.091zm2.61.884c0-.447.35-.809.781-.809.431 0 .781.362.781.809 0 .447-.35.809-.781.809-.431 0-.781-.362-.781-.809zm2.702-.54c-.223-.387-.102-.876.272-1.091.374-.216.858-.077 1.081.31.223.387.102.876-.272 1.091-.374.216-.858.077-1.081-.31zm2.07-1.819c-.387-.223-.526-.707-.31-1.081.216-.374.704-.495 1.091-.272.387.223.526.707.31 1.081-.216.374-.704.495-1.091.272zm.884-2.61c-.447 0-.809-.35-.809-.781 0-.431.362-.781.809-.781.447 0 .809.35.809.781 0 .431-.362.781-.809.781zm-.54-2.702c-.387.223-.876.102-1.091-.272-.216-.374-.077-.858.31-1.081.387-.223.876-.102 1.091.272.216.374.077.858-.31 1.081zm-1.819-2.07c-.223.387-.707.526-1.081.31-.374-.216-.495-.704-.272-1.091.223-.387.707-.526 1.081-.31.374.216.495.704.272 1.091zm-2.61-.884c0 .447-.35.809-.781.809-.431 0-.781-.362-.781-.809 0-.447.35-.809.781-.809.431 0 .781.362.781.809z" fill="url(#j)"/><path d="M7.875 2.802v5.25" stroke="#000" fill="none"/><path d="M7.778 7.463l3.005.177" stroke="#000" fill="none"/></g><path d="M15.412 8.133a7.369 7.437 0 1 1-14.737 0 7.369 7.437 0 1 1 14.737 0z" transform="matrix(.916 0 0 .916 .647 .567)" fill="url(#k)"/></svg>