<svg height="16" width="16" xmlns="http://www.w3.org/2000/svg"><linearGradient id="a" gradientUnits="userSpaceOnUse" x1="2.225" x2="14.039" y1="2.83" y2="13.172"><stop offset="0" stop-color="#909090"/><stop offset="1" stop-color="#3c3c3c"/></linearGradient><filter id="b"><feGaussianBlur stdDeviation=".324"/></filter><linearGradient id="c" gradientUnits="userSpaceOnUse" x1="2.225" x2="14.039" y1="2.83" y2="13.172"><stop offset="0" stop-color="#f8ff82"/><stop offset="1" stop-color="#f1ff19"/></linearGradient><linearGradient id="e" gradientUnits="userSpaceOnUse" x1="10.74" x2="6.306" y1="16.149" y2="-1.28"><stop offset="0"/><stop offset="1" stop-color="#b3b3b3"/></linearGradient><radialGradient id="f" cx="8.198" cy="-.08" gradientTransform="matrix(1.571 .011 -.014 1.98 -4.566 -.684)" gradientUnits="userSpaceOnUse" r="7.778"><stop offset="0" stop-color="#fff"/><stop offset=".364" stop-color="#ffcc84" stop-opacity=".498"/><stop offset="1" stop-color="#ff9a0a" stop-opacity="0"/></radialGradient><linearGradient id="d" gradientUnits="userSpaceOnUse" x1="2.225" x2="14.039" y1="2.83" y2="13.172"><stop offset="0" stop-color="#c1c1c1"/><stop offset="1" stop-color="#8c8c8c"/></linearGradient><path d="M15.822 8.133a7.778 7.778 0 1 1-15.556 0 7.778 7.778 0 1 1 15.556 0z" fill="url(#a)" filter="url(#b)" transform="translate(0 -.088)"/><path d="M15.822 8.133a7.778 7.778 0 1 1-15.556 0 7.778 7.778 0 1 1 15.556 0z" fill="url(#c)" transform="matrix(.916 0 0 .916 .647 .567)"/><path d="M1.701 12.636a7.778 7.778 0 0 1 6.37-12.28l-.027 7.778z" fill="url(#d)" transform="matrix(.916 0 0 .916 .647 .567)"/><path d="M5.798 3.162c.223.387.102.876-.272 1.091s-.858.077-1.081-.31-.102-.876.272-1.091.858-.077 1.081.31zm-2.07 1.819c.387.223.526.707.31 1.081s-.704.495-1.091.272c-.387-.223-.526-.707-.31-1.081.216-.374.704-.495 1.091-.272zm-.884 2.61c.447 0 .809.35.809.781s-.362.781-.809.781c-.447 0-.809-.35-.809-.781 0-.431.362-.781.809-.781zm.54 2.702c.387-.223.876-.102 1.091.272s.077.858-.31 1.081-.876.102-1.091-.272-.077-.858.31-1.081zm1.819 2.07c.223-.387.707-.526 1.081-.31s.495.704.272 1.091c-.223.387-.707.526-1.081.31s-.495-.704-.272-1.091zm2.61.884c0-.447.35-.809.781-.809.431 0 .781.362.781.809 0 .447-.35.809-.781.809-.431 0-.781-.362-.781-.809zm2.702-.54c-.223-.387-.102-.876.272-1.091s.858-.077 1.081.31c.223.387.102.876-.272 1.091s-.858.077-1.081-.31zm2.07-1.819c-.387-.223-.526-.707-.31-1.081.216-.374.704-.495 1.091-.272.387.223.526.707.31 1.081-.216.374-.704.495-1.091.272zm.884-2.61c-.447 0-.809-.35-.809-.781 0-.431.362-.781.809-.781.447 0 .809.35.809.781 0 .431-.362.781-.809.781zm-.54-2.702c-.387.223-.876.102-1.091-.272s-.077-.858.31-1.081.876-.102 1.091.272.077.858-.31 1.081zm-1.819-2.07c-.223.387-.707.526-1.081.31-.374-.216-.495-.704-.272-1.091.223-.387.707-.526 1.081-.31.374.216.495.704.272 1.091zm-2.61-.884c0 .447-.35.809-.781.809s-.781-.362-.781-.809c0-.447.35-.809.781-.809s.781.362.781.809z" fill="url(#e)"/><g stroke="#000" fill="none"><path d="M7.875 2.802v5.25M7.778 7.463l3.005.177"/></g><path d="M15.412 8.133a7.369 7.437 0 1 1-14.737 0 7.369 7.437 0 1 1 14.737 0z" fill="url(#f)" transform="matrix(.916 0 0 .916 .647 .567)"/></svg>