<svg xmlns="http://www.w3.org/2000/svg" width="120" height="120"><g><path d="M9.438 99.758l68.709-66.648-4.466-4.81-6.527-19.926 18.551 6.527 4.81 3.779 4.81-4.81 11.681 12.368-6.184 4.81 13.742 14.085-12.711 14.429-14.772-16.147-65.274 70.77z" fill="#a9a9a9"/><path d="M114.563 99.758l-68.709-66.648 4.466-4.81 6.527-19.926-18.551 6.527-4.81 3.779-4.81-4.81-11.681 12.368 6.184 4.81-13.742 14.085 12.711 14.429 14.772-16.147 65.274 70.77z" fill="#a9a9a9"/><path d="M10.96 44.693l27.577-28.284 15.556-5.657-5.657 17.324-26.163 28.638z" fill="#6e6e6e"/><path d="M69.296 10.398l16.263 6.718 26.163 27.931-9.546 11.667-27.224-28.991z" fill="#6e6e6e"/></g></svg>